{"title":"Solitary.Man.2009.SWESUB.DVDRip.XviD.AC3-Zen_Bud","uid":5757070,"size":1469609460,"categoryP":"video","categoryS":"movies","magnet":"?xt=urn:btih:37ddbc6650b2562cc1f0fb1db2bb2d0120936e28&amp;dn=Solitary.Man.2009.SWESUB.DVDRip.XviD.AC3-Zen_Bud&amp;tr=udp%3A%2F%2Ftracker.openbittorrent.com%3A80&amp;tr=udp%3A%2F%2Fopen.demonii.com%3A1337&amp;tr=udp%3A%2F%2Ftracker.coppersurfer.tk%3A6969&amp;tr=udp%3A%2F%2Fexodus.desync.com%3A6969","seeders":0,"leechers":2,"uploader":"Zen_Bud","files":-1,"time":1281600937,"description":"General\nComplete name                    : Solitary.Man.2009.avi\nFormat                           : AVI\nFile size                        : 1.37 GiB\nDuration                         : 1h 26mn\nOverall bit rate                 : 2 273 Kbps\n\nVideo\n\nFormat                           : MPEG-4 Visual\nCodec ID/Hint                    : XviD\nDuration                         : 1h 26mn\nBit rate                         : 1 814 Kbps\nWidth                            : 720 pixels\nHeight                           : 576 pixels\nDisplay aspect ratio             : 16:9\nStream size                      : 1.09 GiB (80%)\nWriting library                  : XviD 1.1.2 (UTC 2006-11-01)\n\nAudio\n\nFormat                           : AC-3\nDuration                         : 1h 26mn\nBit rate                         : 448 Kbps\nChannel(s)                       : 6 channels\nChannel positions                : Front: L C R, Side: L R, LFE\nSampling rate                    : 48.0 KHz\nStream size                      : 276 MiB (20%)\n\n\n","torrent":{"xt":"urn:btih:37ddbc6650b2562cc1f0fb1db2bb2d0120936e28","amp;dn":"Solitary.Man.2009.SWESUB.DVDRip.XviD.AC3-Zen_Bud","amp;tr":["udp%3A%2F%2Ftracker.openbittorrent.com%3A80","udp%3A%2F%2Fopen.demonii.com%3A1337","udp%3A%2F%2Ftracker.coppersurfer.tk%3A6969","udp%3A%2F%2Fexodus.desync.com%3A6969"],"infoHash":"37ddbc6650b2562cc1f0fb1db2bb2d0120936e28","infoHashBuffer":{"type":"Buffer","data":[55,221,188,102,80,178,86,44,193,240,251,29,178,187,45,1,32,147,110,40]},"announce":[],"urlList":[]}}